<svg width="35" height="34" viewBox="0 0 35 34" fill="none" xmlns="http://www.w3.org/2000/svg">
<path d="M17.5 2.83334C9.68004 2.83334 3.33337 9.18001 3.33337 17C3.33337 24.82 9.68004 31.1667 17.5 31.1667C25.32 31.1667 31.6667 24.82 31.6667 17C31.6667 9.18001 25.32 2.83334 17.5 2.83334ZM17.5 7.08334C19.8517 7.08334 21.75 8.98168 21.75 11.3333C21.75 13.685 19.8517 15.5833 17.5 15.5833C15.1484 15.5833 13.25 13.685 13.25 11.3333C13.25 8.98168 15.1484 7.08334 17.5 7.08334ZM17.5 27.2C13.9584 27.2 10.8275 25.3867 9.00004 22.6383C9.04254 19.8192 14.6667 18.275 17.5 18.275C20.3192 18.275 25.9575 19.8192 26 22.6383C24.1725 25.3867 21.0417 27.2 17.5 27.2Z" fill="white"/>
</svg>
