<svg width="25" height="24" viewBox="0 0 25 24" fill="none" xmlns="http://www.w3.org/2000/svg">
<path d="M15.838 14H15.048L14.768 13.73C15.748 12.59 16.338 11.11 16.338 9.5C16.338 5.91 13.428 3 9.83801 3C6.24801 3 3.33801 5.91 3.33801 9.5C3.33801 13.09 6.24801 16 9.83801 16C11.448 16 12.928 15.41 14.068 14.43L14.338 14.71V15.5L19.338 20.49L20.828 19L15.838 14ZM9.83801 14C7.34801 14 5.33801 11.99 5.33801 9.5C5.33801 7.01 7.34801 5 9.83801 5C12.328 5 14.338 7.01 14.338 9.5C14.338 11.99 12.328 14 9.83801 14Z" fill="#323232"/>
</svg>
